<svg xmlns="http://www.w3.org/2000/svg" viewBox="0 0 220 170" role="img" aria-label="Decorative ketchup splat">
  <path fill="#8B0000" d="M103 41c19-17 52-13 68 6 17 19 15 50-2 68-17 19-48 29-75 20-28-9-47-34-43-58 3-17 19-24 52-36Z"/>
  <path fill="#8B0000" d="M50 64c-11-7-26-8-34 1-8 8-6 23 5 29 12 7 27 2 33-8 5-8 4-17-4-22Z"/>
  <path fill="#8B0000" d="M174 109c10-5 23-2 28 7 5 10-1 22-12 25-10 3-22-3-25-12-3-8 1-16 9-20Z"/>
  <path fill="#8B0000" d="M72 132c-8 5-12 15-7 22 5 8 18 8 25 1 7-6 8-17 2-23-5-5-13-5-20 0Z"/>
  <path fill="#8B0000" d="M153 28c4-10 16-18 25-13 9 5 9 20 1 29-7 8-21 10-26 2-3-5-3-11 0-18Z"/>
  <path fill="#8B0000" d="M113 14c-5-8-17-12-25-6-7 6-5 19 4 25 8 6 21 4 25-4 2-5 1-10-4-15Z"/>
  <circle cx="35" cy="39" r="7" fill="#8B0000"/>
  <circle cx="191" cy="55" r="8" fill="#8B0000"/>
  <circle cx="130" cy="154" r="9" fill="#8B0000"/>
  <circle cx="203" cy="91" r="5" fill="#8B0000"/>
  <circle cx="14" cy="119" r="6" fill="#8B0000"/>
</svg>
